<svg width="189" height="189" viewBox="0 0 189 189" fill="none" xmlns="http://www.w3.org/2000/svg">
<rect width="189" height="189" rx="94.5" fill="white"/>
<g clip-path="url(#clip0_18975_203224)">
<path d="M47.4417 138.22C46.1194 138.22 44.9294 137.921 43.8717 137.323C42.8259 136.713 42.0025 135.868 41.4015 134.79C40.8005 133.712 40.5 132.49 40.5 131.126C40.5 129.762 40.8005 128.54 41.4015 127.462C42.0025 126.384 42.8259 125.546 43.8717 124.948C44.9294 124.338 46.1194 124.032 47.4417 124.032C48.5956 124.032 49.6353 124.253 50.5609 124.695C51.4864 125.136 52.2557 125.773 52.8687 126.604L50.597 128.826C49.7796 127.761 48.7879 127.228 47.622 127.228C46.9368 127.228 46.3238 127.39 45.7829 127.716C45.254 128.04 44.8393 128.502 44.5388 129.099C44.2503 129.684 44.1061 130.359 44.1061 131.126C44.1061 131.893 44.2503 132.575 44.5388 133.172C44.8393 133.757 45.254 134.212 45.7829 134.536C46.3238 134.861 46.9368 135.024 47.622 135.024C48.7879 135.024 49.7796 134.491 50.597 133.426L52.8687 135.647C52.2557 136.479 51.4864 137.115 50.5609 137.557C49.6353 137.999 48.5956 138.22 47.4417 138.22V138.22ZM62.9175 135.296H57.5805L56.5889 137.947H52.9468L58.5181 124.305H62.034L67.6233 137.947H63.9091L62.9175 135.296ZM61.8716 132.451L60.2492 128.086L58.6263 132.451H61.8716ZM74.6173 124.305C75.7591 124.305 76.7507 124.513 77.5921 124.929C78.4335 125.331 79.083 125.916 79.5397 126.683C79.9964 127.436 80.2248 128.326 80.2248 129.352C80.2248 130.379 79.9964 131.269 79.5397 132.022C79.083 132.776 78.4335 133.361 77.5921 133.776C76.7507 134.179 75.7591 134.38 74.6173 134.38H72.4175V137.947H68.8474V124.305H74.6173V124.305ZM74.4011 131.34C75.134 131.34 75.6871 131.171 76.0596 130.833C76.4325 130.483 76.6187 129.989 76.6187 129.352C76.6187 128.716 76.4325 128.222 76.0596 127.872C75.6871 127.521 75.134 127.345 74.4011 127.345H72.4175V131.34H74.4011ZM82.1773 124.305H85.7473V137.947H82.1773V124.305ZM91.186 127.365H87.3095V124.305H98.6144V127.365H94.7561V137.947H91.186V127.365ZM107.979 135.296H102.642L101.65 137.947H98.0082L103.579 124.305H107.095L112.685 137.947H108.971L107.979 135.296V135.296ZM106.933 132.451L105.31 128.086L103.688 132.451H106.933ZM113.909 124.305H117.479V134.887H123.501V137.947H113.909V124.305V124.305ZM45.9569 115.968H44.031V119.622H40.5V105.871H46.2066C47.336 105.871 48.3168 106.08 49.149 106.499C49.9812 106.905 50.6232 107.495 51.075 108.268C51.5268 109.027 51.7527 109.924 51.7527 110.959C51.7527 111.954 51.5387 112.825 51.1107 113.572C50.6946 114.305 50.0942 114.881 49.3095 115.3L52.0023 119.622H48.2217L45.9569 115.968ZM48.1861 110.959C48.1861 110.317 48.0018 109.82 47.6332 109.466C47.2647 109.112 46.7178 108.936 45.9926 108.936H44.031V112.963H45.9926C46.7178 112.963 47.2647 112.792 47.6332 112.452C48.0018 112.098 48.1861 111.601 48.1861 110.959V110.959ZM63.9326 116.617V119.622H53.9105V105.871H63.7008V108.876H57.4057V111.195H62.952V114.102H57.4057V116.617H63.9326ZM71.8086 105.871C72.9379 105.871 73.9185 106.08 74.7508 106.499C75.5831 106.905 76.225 107.495 76.6768 108.268C77.1286 109.027 77.3547 109.924 77.3547 110.959C77.3547 111.994 77.1286 112.891 76.6768 113.65C76.225 114.41 75.5831 114.999 74.7508 115.418C73.9185 115.824 72.9379 116.027 71.8086 116.027H69.6327V119.622H66.1017V105.871H71.8086V105.871ZM71.5943 112.963C72.3196 112.963 72.8666 112.792 73.235 112.452C73.6037 112.098 73.7881 111.601 73.7881 110.959C73.7881 110.317 73.6037 109.82 73.235 109.466C72.8666 109.112 72.3196 108.936 71.5943 108.936H69.6327V112.963H71.5943V112.963ZM84.9242 119.897C83.0695 119.897 81.625 119.341 80.5905 118.227C79.5682 117.114 79.0572 115.536 79.0572 113.493V105.871H82.5881V113.375C82.5881 115.575 83.3787 116.675 84.9598 116.675C86.5292 116.675 87.3137 115.575 87.3137 113.375V105.871H90.7911V113.493C90.7911 115.536 90.2741 117.114 89.2396 118.227C88.2173 119.341 86.7788 119.897 84.9242 119.897ZM102.987 112.452C103.701 112.727 104.259 113.159 104.663 113.748C105.068 114.325 105.27 115.025 105.27 115.85C105.27 117.055 104.83 117.985 103.95 118.64C103.071 119.295 101.798 119.622 100.134 119.622H93.3931V105.871H99.7771C101.37 105.871 102.583 106.198 103.415 106.853C104.247 107.495 104.663 108.366 104.663 109.466C104.663 110.121 104.515 110.71 104.218 111.234C103.932 111.745 103.522 112.151 102.987 112.452V112.452ZM96.8884 108.68V111.332H99.3135C100.502 111.332 101.097 110.887 101.097 109.996C101.097 109.119 100.502 108.68 99.3135 108.68H96.8884ZM99.8484 116.813C101.085 116.813 101.703 116.348 101.703 115.418C101.703 114.489 101.085 114.023 99.8484 114.023H96.8884V116.813H99.8484ZM107.309 105.871H110.84V116.538H116.796V119.622H107.309V105.871ZM118.403 105.871H121.934V119.622H118.403V105.871ZM130.879 119.897C129.572 119.897 128.395 119.596 127.348 118.994C126.314 118.378 125.5 117.527 124.905 116.44C124.311 115.353 124.014 114.122 124.014 112.747C124.014 111.371 124.311 110.14 124.905 109.053C125.5 107.966 126.314 107.122 127.348 106.519C128.395 105.904 129.572 105.596 130.879 105.596C132.021 105.596 133.049 105.819 133.965 106.264C134.88 106.709 135.641 107.351 136.247 108.189L134 110.428C133.192 109.354 132.211 108.818 131.058 108.818C130.38 108.818 129.774 108.981 129.239 109.309C128.716 109.636 128.305 110.101 128.008 110.703C127.723 111.293 127.58 111.974 127.58 112.747C127.58 113.519 127.723 114.207 128.008 114.809C128.305 115.399 128.716 115.857 129.239 116.184C129.774 116.512 130.38 116.675 131.058 116.675C132.211 116.675 133.192 116.139 134 115.065L136.247 117.304C135.641 118.142 134.88 118.784 133.965 119.229C133.049 119.675 132.021 119.897 130.879 119.897V119.897ZM148.5 43.8949V40.5H43.8948V43.8949H148.5ZM148.5 148.5H145.105V43.8949H148.5V148.5ZM40.5 148.5V145.105H145.105V148.5H40.5ZM40.5 145.105V141.625H44.1071V145.105H40.5Z" fill="#161D2C"/>
<path d="M43.9797 40.5H40.5V102.245H43.9797V40.5Z" fill="#161D2C"/>
</g>
<defs>
<clipPath id="clip0_18975_203224">
<rect width="108" height="108" fill="white" transform="translate(40.5 40.5)"/>
</clipPath>
</defs>
</svg>
